<?xml version="1.0" encoding="UTF-8" standalone="no"?>
<!-- Created with Inkscape (http://www.inkscape.org/) -->

<svg
   width="13.229167mm"
   height="13.229167mm"
   viewBox="0 0 13.229167 13.229167"
   version="1.1"
   id="svg1"
   xml:space="preserve"
   inkscape:version="1.4.3 (0d15f75, 2025-12-25)"
   sodipodi:docname="drawing.svg"
   inkscape:export-filename="Nutech-Group\public\vendor-logos\apple.svg"
   inkscape:export-xdpi="96"
   inkscape:export-ydpi="96"
   xmlns:inkscape="http://www.inkscape.org/namespaces/inkscape"
   xmlns:sodipodi="http://sodipodi.sourceforge.net/DTD/sodipodi-0.dtd"
   xmlns="http://www.w3.org/2000/svg"
   xmlns:svg="http://www.w3.org/2000/svg"><sodipodi:namedview
     id="namedview1"
     pagecolor="#1e1e1e"
     bordercolor="#ffffff"
     borderopacity="1"
     inkscape:showpageshadow="0"
     inkscape:pageopacity="0"
     inkscape:pagecheckerboard="false"
     inkscape:deskcolor="#1e1e1e"
     inkscape:document-units="mm"
     showborder="false"
     inkscape:zoom="0.75110017"
     inkscape:cx="16524.427"
     inkscape:cy="36875.907"
     inkscape:window-width="1920"
     inkscape:window-height="1057"
     inkscape:window-x="-8"
     inkscape:window-y="-8"
     inkscape:window-maximized="1"
     inkscape:current-layer="layer1"><inkscape:page
       x="0"
       y="0"
       width="13.229167"
       height="13.229167"
       id="page2"
       margin="0"
       bleed="0" /></sodipodi:namedview><defs
     id="defs1"><style
       id="style1">
      .cls-1 {
        fill: none;
      }
    </style><style
       id="style1-5">.b555f035-ddb7-45c4-a3cc-c93e6b76b4cf{fill:#e00;}</style></defs><g
     inkscape:label="Layer 1"
     inkscape:groupmode="layer"
     id="layer1"
     transform="translate(-596.38343,-3065.0169)"><g
       id="g126"><rect
         style="fill:#ffffff;fill-opacity:1;stroke-width:1.18919;stroke-linecap:round;stroke-linejoin:round"
         id="rect32"
         width="13.229167"
         height="13.229167"
         x="596.38312"
         y="3065.0168"
         ry="2.6458333" /><path
         fill="#f4f4f4"
         d="m 605.987,3071.9325 c 0,-0.8671 0.387,-1.5216 1.181,-2.0036 -0.444,-0.6356 -1.115,-0.9853 -2.001,-1.0538 -0.839,-0.066 -1.756,0.4891 -2.091,0.4891 -0.355,0 -1.167,-0.4655 -1.805,-0.4655 -1.319,0.021 -2.72,1.0514 -2.72,3.1472 0,0.6191 0.114,1.2594 0.34,1.9186 0.302,0.8672 1.394,2.9937 2.533,2.9582 0.595,-0.014 1.016,-0.4229 1.791,-0.4229 0.752,0 1.141,0.4229 1.805,0.4229 1.149,-0.016 2.136,-1.9493 2.425,-2.8188 -1.541,-0.7254 -1.458,-2.1265 -1.458,-2.1714 z m -1.338,-3.8797 c 0.645,-0.7655 0.586,-1.4625 0.567,-1.713 -0.569,0.033 -1.229,0.3875 -1.604,0.8246 -0.413,0.4678 -0.657,1.0467 -0.605,1.6988 0.617,0.047 1.179,-0.2693 1.642,-0.8104 z"
         id="path1"
         style="fill:#000000;fill-opacity:1;stroke-width:0.0236278" /></g></g><style
     type="text/css"
     id="style1-7">
	.st0{display:none;}
	.st1{display:inline;}
	.st2{fill:#FFFFFF;}
	.st3{display:inline;fill:#FFFFFF;}
	.st4{fill:#231F20;}
	.st5{clip-path:url(#SVGID_2_);fill:#231F20;}
	.st6{fill:#003D79;}
	.st7{display:inline;fill:#231F20;}
	.st8{clip-path:url(#SVGID_4_);fill:#231F20;}
	.st9{display:inline;fill:#003D79;}
	.st10{clip-path:url(#SVGID_6_);fill:#003D79;}
	.st11{clip-path:url(#SVGID_6_);fill:#FFFFFF;}
</style></svg>
