<?xml version="1.0" encoding="UTF-8" standalone="no"?>
<!-- Created with Inkscape (http://www.inkscape.org/) -->

<svg
   width="52.859051mm"
   height="13.229167mm"
   viewBox="0 0 52.859051 13.229167"
   version="1.1"
   id="svg1"
   xml:space="preserve"
   inkscape:version="1.4.3 (0d15f75, 2025-12-25)"
   sodipodi:docname="drawing.svg"
   inkscape:export-filename="Nutech-Group\public\vendor-logos\apple.svg"
   inkscape:export-xdpi="96"
   inkscape:export-ydpi="96"
   xmlns:inkscape="http://www.inkscape.org/namespaces/inkscape"
   xmlns:sodipodi="http://sodipodi.sourceforge.net/DTD/sodipodi-0.dtd"
   xmlns="http://www.w3.org/2000/svg"
   xmlns:svg="http://www.w3.org/2000/svg"><sodipodi:namedview
     id="namedview1"
     pagecolor="#1e1e1e"
     bordercolor="#ffffff"
     borderopacity="1"
     inkscape:showpageshadow="0"
     inkscape:pageopacity="0"
     inkscape:pagecheckerboard="false"
     inkscape:deskcolor="#1e1e1e"
     inkscape:document-units="mm"
     showborder="false"
     inkscape:zoom="0.75110017"
     inkscape:cx="16524.427"
     inkscape:cy="36875.907"
     inkscape:window-width="1920"
     inkscape:window-height="1057"
     inkscape:window-x="-8"
     inkscape:window-y="-8"
     inkscape:window-maximized="1"
     inkscape:current-layer="layer1"><inkscape:page
       x="0"
       y="0"
       width="52.859051"
       height="13.229167"
       id="page2"
       margin="0"
       bleed="0" /></sodipodi:namedview><defs
     id="defs1"><style
       id="style1">
      .cls-1 {
        fill: none;
      }
    </style><style
       id="style1-5">.b555f035-ddb7-45c4-a3cc-c93e6b76b4cf{fill:#e00;}</style></defs><g
     inkscape:label="Layer 1"
     inkscape:groupmode="layer"
     id="layer1"
     transform="translate(-577.10331,-3265.9095)"><g
       id="g125"
       transform="translate(-82.936709,99.775693)"><rect
         style="fill:#ffffff;fill-opacity:1;stroke-width:2.37708;stroke-linecap:round;stroke-linejoin:round"
         id="rect103"
         width="52.858986"
         height="13.229167"
         x="660.03998"
         y="3166.1338"
         ry="2.6458333" /><path
         id="Path_1419"
         data-name="Path 1419"
         d="m 671.94655,3172.7489 a 5.2911461,5.2911461 0 1 1 -5.29149,-5.2911 5.2911461,5.2911461 0 0 1 5.29149,5.2911"
         fill="#ffffff"
         style="stroke-width:0.347006" /><path
         id="Path_1420"
         data-name="Path 1420"
         d="m 662.24843,3175.6807 a 5.2914931,5.2914931 0 0 1 8.29726,-6.5171 c -1.02228,-0.6988 -2.97141,-0.3647 -4.83032,0.8262 1.6854,-1.0292 3.47595,-1.1919 4.19426,-0.2727 0.82587,1.0559 -0.0423,3.1144 -1.94046,4.5978 -1.89812,1.4835 -3.82297,1.7625 -4.17969,0.762 -0.13117,-0.3733 -0.23423,-0.8498 0.53266,-2.3537 h 0.89944 l 0.1735,-0.3636 h -0.91575 l 0.55903,-1.2035 c 0,0 -0.44695,0 -0.45111,0 a 5.2085587,5.2085587 0 0 1 -2.22778,1.2391 l -0.14539,0.3418 h 0.61905 c -0.69227,1.0875 -0.90499,2.1594 -0.5847,2.936 z"
         fill="#d71920"
         style="stroke-width:0.347006" /><path
         id="Path_1421"
         data-name="Path 1421"
         d="m 671.94655,3172.7489 a 5.2914931,5.2914931 0 0 1 -9.11966,3.6526 c 1.16108,0.7981 3.52558,0.255 5.61351,-1.3759 2.06712,-1.6146 3.16643,-3.7504 2.70665,-5.0753 a 5.2675497,5.2675497 0 0 1 0.79811,2.7986"
         fill="#d71920"
         style="stroke-width:0.347006" /><path
         id="Path_1422"
         data-name="Path 1422"
         d="m 708.53312,3175.3001 -0.30606,-0.033 v 0.013 l 0.24638,0.094 0.57499,0.329 v 0.096 l -0.57638,0.345 -0.24533,0.098 v 0.011 l 0.30501,-0.043 h 0.80089 v 0.2852 H 707.794 v -0.2755 l 0.70442,-0.4112 0.17593,-0.073 v -0.01 l -0.18113,-0.066 -0.69887,-0.3896 v -0.2728 h 1.54001 v 0.3016 z"
         fill="#ffffff"
         style="fill:#000000;fill-opacity:1;stroke-width:0.347006" /><rect
         id="Rectangle_1014"
         data-name="Rectangle 1014"
         width="1.5400122"
         height="0.30154815"
         fill="#ffffff"
         x="707.79297"
         y="3174.2163"
         style="fill:#000000;fill-opacity:1;stroke-width:0.347006" /><path
         id="Path_1423"
         data-name="Path 1423"
         d="m 709.2712,3172.7815 a 0.46602894,0.46602894 0 0 1 0.0715,0.179 1.1579587,1.1579587 0 0 1 0.0215,0.2235 0.80782976,0.80782976 0 0 1 -0.0423,0.2627 0.58019388,0.58019388 0 0 1 -0.13881,0.2193 0.68290763,0.68290763 0 0 1 -0.24845,0.1509 1.0944566,1.0944566 0 0 1 -0.37095,0.057 1.0430998,1.0430998 0 0 1 -0.37997,-0.062 0.71726122,0.71726122 0 0 1 -0.24638,-0.1627 0.60205525,0.60205525 0 0 1 -0.13464,-0.2235 0.78770342,0.78770342 0 0 1 -0.0413,-0.2464 1.1891893,1.1891893 0 0 1 0.0184,-0.2234 0.80852377,0.80852377 0 0 1 0.0423,-0.151 l 0.25505,0.06 a 0.43792146,0.43792146 0 0 0 -0.0347,0.1204 1.056633,1.056633 0 0 0 -0.0108,0.1683 0.3640092,0.3640092 0 0 0 0.13012,0.2929 0.60934238,0.60934238 0 0 0 0.40461,0.1117 0.84426538,0.84426538 0 0 0 0.21688,-0.026 0.45110768,0.45110768 0 0 0 0.16726,-0.08 0.37962447,0.37962447 0 0 0 0.10965,-0.1346 0.42195919,0.42195919 0 0 0 0.0378,-0.1867 0.60934238,0.60934238 0 0 0 -0.0194,-0.1672 0.4812972,0.4812972 0 0 0 -0.05,-0.1194 l 0.24533,-0.061 z"
         fill="#ffffff"
         style="fill:#000000;fill-opacity:1;stroke-width:0.347006" /><path
         id="Path_1424"
         data-name="Path 1424"
         d="m 707.80683,3172.4268 c -0.007,-0.035 -0.0118,-0.069 -0.0163,-0.1096 -0.005,-0.04 -0.009,-0.077 -0.0118,-0.1163 -0.003,-0.039 -0.006,-0.077 -0.008,-0.1138 -0.002,-0.037 -0.002,-0.069 -0.002,-0.101 a 1.0708602,1.0708602 0 0 1 0.0205,-0.2127 0.58678699,0.58678699 0 0 1 0.0673,-0.1867 0.37164333,0.37164333 0 0 1 0.1336,-0.1325 0.41640709,0.41640709 0 0 1 0.21271,-0.05 0.50593462,0.50593462 0 0 1 0.30814,0.088 0.45318972,0.45318972 0 0 1 0.16483,0.2356 l 0.0694,-0.1075 0.58714,-0.3526 v 0.347 l -0.60588,0.3512 -0.0281,0.1586 h 0.63155 v 0.3015 h -1.52475 z m 0.23215,-0.4622 c 0,0.031 0,0.061 0.002,0.091 a 0.33520771,0.33520771 0 0 0 0.008,0.069 h 0.44695 v -0.128 a 0.32792058,0.32792058 0 0 0 -0.0566,-0.1996 0.22451282,0.22451282 0 0 0 -0.18982,-0.075 0.19571133,0.19571133 0 0 0 -0.15407,0.062 0.26129545,0.26129545 0 0 0 -0.0552,0.1801 z"
         fill="#ffffff"
         style="fill:#000000;fill-opacity:1;stroke-width:0.347006" /><path
         id="Path_1425"
         data-name="Path 1425"
         d="m 708.56262,3171.0766 a 0.91540159,0.91540159 0 0 1 -0.59234,-0.1693 0.58991005,0.58991005 0 0 1 -0.20821,-0.4841 0.67180344,0.67180344 0 0 1 0.0576,-0.2887 0.528143,0.528143 0 0 1 0.16378,-0.204 0.68533667,0.68533667 0 0 1 0.25297,-0.1215 1.2801048,1.2801048 0 0 1 0.32757,-0.039 0.91262554,0.91262554 0 0 1 0.59373,0.1704 0.58678699,0.58678699 0 0 1 0.20821,0.483 0.68880673,0.68880673 0 0 1 -0.0566,0.2908 0.53785916,0.53785916 0 0 1 -0.16274,0.2041 0.72871241,0.72871241 0 0 1 -0.25297,0.1204 1.2748997,1.2748997 0 0 1 -0.32896,0.04 z m 0,-0.3168 a 1.0975797,1.0975797 0 0 0 0.21479,-0.019 0.54792233,0.54792233 0 0 0 0.1683,-0.061 0.32236849,0.32236849 0 0 0 0.1107,-0.1041 0.31230532,0.31230532 0 0 0 -0.0857,-0.4005 0.72871241,0.72871241 0 0 0 -0.40808,-0.088 1.1451195,1.1451195 0 0 0 -0.20821,0.018 0.62877471,0.62877471 0 0 0 -0.17038,0.059 0.3171634,0.3171634 0 0 0 -0.11381,0.1041 0.29321999,0.29321999 0 0 0 -0.0403,0.1561 0.28662688,0.28662688 0 0 0 0.12909,0.2495 0.72628337,0.72628337 0 0 0 0.40253,0.088 z"
         fill="#ffffff"
         style="fill:#000000;fill-opacity:1;stroke-width:0.347006" /><path
         id="Path_1426"
         data-name="Path 1426"
         d="m 710.68941,3169.858 h -0.24638 v 0.6524 h -0.0965 v -0.6524 h -0.24291 v -0.087 h 0.58714 z"
         fill="#ffffff"
         style="fill:#000000;fill-opacity:1;stroke-width:0.347006" /><path
         id="Path_1427"
         data-name="Path 1427"
         d="m 711.57601,3170.5104 h -0.0933 v -0.6188 l -0.21479,0.6188 h -0.0878 l -0.21063,-0.6295 -0.002,0.6295 h -0.0954 v -0.7392 h 0.14644 l 0.17593,0.523 c 0,0 0.008,0.022 0.0194,0.062 a 0.22347181,0.22347181 0 0 1 0.0142,0.049 l 0.0413,-0.1194 0.17697,-0.5143 h 0.13013 z"
         fill="#ffffff"
         style="fill:#000000;fill-opacity:1;stroke-width:0.347006" /><path
         id="Path_1428"
         data-name="Path 1428"
         d="m 687.04339,3169.7702 h 4.82338 v 1.1177 h -3.38018 v 1.582 h 3.11021 v 1.1166 h -3.11021 v 1.7916 h 3.4822 v 1.117 h -4.9254 z"
         fill="#ffffff"
         style="fill:#000000;fill-opacity:1;stroke-width:0.347006" /><path
         id="Path_1429"
         data-name="Path 1429"
         d="m 697.25057,3176.4951 -2.4686,-4.4718 -0.0184,0.019 v 4.4524 h -1.34986 v -6.7249 h 1.78674 l 2.45472,4.3938 0.0194,-0.018 v -4.3754 h 1.34881 v 6.7249 z"
         fill="#ffffff"
         style="fill:#000000;fill-opacity:1;stroke-width:0.347006" /><path
         id="Path_1430"
         data-name="Path 1430"
         d="m 702.85229,3169.7702 h -2.29024 v 6.7256 h 2.29024 c 2.09765,0.018 3.40066,-1.0254 3.40066,-3.3628 0,-2.3374 -1.30336,-3.3826 -3.40066,-3.3618 m -0.0999,5.6069 h -0.74502 v -4.4382 h 0.74676 c 1.71247,-0.019 1.96509,1.1209 1.96509,2.1921 0,1.0712 -0.25297,2.2659 -1.96509,2.2451"
         fill="#ffffff"
         style="fill:#000000;fill-opacity:1;stroke-width:0.347006" /><path
         id="Path_1431"
         data-name="Path 1431"
         d="m 673.48517,3169.7702 h 5.44799 v 1.1177 h -2.00222 v 5.6072 h -1.44355 v -5.6072 h -2.00222 z"
         fill="#ffffff"
         style="fill:#000000;fill-opacity:1;stroke-width:0.347006" /><path
         id="Path_1432"
         data-name="Path 1432"
         d="m 684.47277,3173.6487 a 1.9685645,1.9685645 0 0 0 1.28393,-1.8523 2.0608681,2.0608681 0 0 0 -0.0219,-0.2974 1.9179017,1.9179017 0 0 0 -0.98653,-1.4258 c -0.0652,-0.041 -0.48824,-0.303 -1.7385,-0.303 -0.025,0 -0.0489,0 -0.0729,0 h -2.85378 v 6.726 h 1.44216 v -2.6719 h 1.52682 a 24.984426,24.984426 0 0 1 1.06462,2.6695 h 1.77424 l -1.41509,-2.8454 z m -2.94955,-2.7379 h 1.7038 c 0.57187,0.01 0.92998,0.2148 0.99418,0.694 v 0.01 c 0.002,0.016 0.003,0.035 0.005,0.05 0.001,0.015 0.002,0.035 0.003,0.05 v 0.064 c -0.006,0.5836 -0.3765,0.8942 -1.00285,0.9022 h -1.7038 v -1.7673 z"
         fill="#ffffff"
         style="fill:#000000;fill-opacity:1;stroke-width:0.347006" /></g></g><style
     type="text/css"
     id="style1-7">
	.st0{display:none;}
	.st1{display:inline;}
	.st2{fill:#FFFFFF;}
	.st3{display:inline;fill:#FFFFFF;}
	.st4{fill:#231F20;}
	.st5{clip-path:url(#SVGID_2_);fill:#231F20;}
	.st6{fill:#003D79;}
	.st7{display:inline;fill:#231F20;}
	.st8{clip-path:url(#SVGID_4_);fill:#231F20;}
	.st9{display:inline;fill:#003D79;}
	.st10{clip-path:url(#SVGID_6_);fill:#003D79;}
	.st11{clip-path:url(#SVGID_6_);fill:#FFFFFF;}
</style></svg>
